<svg width="42" height="42" viewBox="0 0 42 42" fill="none" xmlns="http://www.w3.org/2000/svg">
<g clip-path="url(#clip0_178_4603)">
<path d="M34.3773 20.9139C32.7663 22.5249 30.7896 23.7242 28.6066 24.3797C27.3348 24.7649 26.0537 24.9413 24.8057 24.9209C24.8442 29.3014 22.5403 33.733 18.4812 36.3327C14.3172 38.9964 9.15503 38.0075 6.96424 34.1289C6.20556 32.7872 6.0555 31.1642 6.53962 29.5617C7.02375 27.9592 8.08752 26.5681 9.52806 25.6458C10.5637 24.9784 11.7622 24.7347 12.8831 24.9504C14.004 25.1661 14.9264 25.8122 15.4685 26.784C16.2928 28.2373 15.6911 30.2439 14.1159 31.2463C13.8985 31.3818 13.6343 31.3324 13.5234 31.1295C13.4126 30.9266 13.4936 30.6547 13.711 30.5192C14.2659 30.1689 14.6656 29.6327 14.8531 29.0224C15.0407 28.4121 14.9759 27.7949 14.6886 27.2775C14.2504 26.5018 13.5156 25.9818 12.6232 25.8104C11.7307 25.6391 10.7734 25.8326 9.94064 26.3653C8.70297 27.1529 7.80286 28.3394 7.38266 29.7143C6.97013 31.0816 7.09803 32.4676 7.74503 33.6209C9.70652 37.1014 14.3411 37.9769 18.0694 35.5988C21.8882 33.1576 24.0182 28.9817 23.9209 24.8646C22.3985 24.723 20.9375 24.2746 19.6239 23.5287C19.4765 23.458 15.2791 21.4087 14.2467 15.1443L14.1512 14.5579L14.7564 14.58C15.0156 14.5937 21.0719 14.8658 23.5278 19.6385C24.2405 21.0262 24.6514 22.5111 24.7725 24.013C25.9761 24.0506 27.2206 23.8835 28.4557 23.5077C31.3812 22.6281 33.9136 20.6957 35.5919 18.0627C37.9777 14.3266 37.0945 9.69974 33.6141 7.73825C32.4607 7.09125 31.0747 6.96335 29.7075 7.37588C28.3402 7.78841 27.146 8.69619 26.3584 9.93386C25.8257 10.7667 25.6254 11.7171 25.8036 12.6164C25.9749 13.5089 26.4949 14.2436 27.2706 14.6818C28.3259 15.2768 29.781 14.8447 30.5123 13.7042C30.6478 13.4868 30.9198 13.4058 31.1226 13.5167C31.3255 13.6275 31.375 13.8917 31.2394 14.1091C30.2379 15.6698 28.2382 16.2784 26.7771 15.4617C25.8054 14.9196 25.1592 13.9973 24.9435 12.8763C24.7278 11.7554 24.9784 10.5638 25.639 9.52128C26.5613 8.08074 27.9524 7.01697 29.5549 6.53284C31.1574 6.04872 32.7804 6.19878 34.1221 6.95746C38.0006 9.14825 38.9895 14.3105 36.3259 18.4744C35.7616 19.3524 35.1146 20.163 34.3935 20.8841L34.3773 20.9139ZM15.2338 15.5484C16.3685 20.9331 20.0603 22.7377 20.0953 22.7573C21.2622 23.418 22.5383 23.8195 23.8647 23.9798C23.7257 22.6594 23.3617 21.3595 22.7257 20.1405C20.9109 16.6226 16.7954 15.7598 15.2338 15.5484Z" fill="#D9BF9F"/>
</g>
<defs>
<clipPath id="clip0_178_4603">
<rect width="40.8304" height="40.8304" fill="white" transform="translate(41.4153 41.415) rotate(-180)"/>
</clipPath>
</defs>
</svg>
