<svg width="252" height="25" viewBox="0 0 252 25" fill="none" xmlns="http://www.w3.org/2000/svg">
<g clip-path="url(#clip0_415_2054)">
<path d="M8.14253 9.22754C8.44571 9.22754 8.72001 9.43288 8.76332 9.71522C8.95101 11.0756 8.54677 12.4103 7.59392 13.4883C6.6555 14.5663 5.29841 15.2594 3.76808 15.4262C2.87298 15.5289 2.00675 15.3107 1.29933 14.823C0.591912 14.3353 0.144361 13.6295 0.0288643 12.8338C-0.0433214 12.3461 0.115487 11.8584 0.447541 11.4734C0.794032 11.0884 1.28489 10.8317 1.8335 10.7804C2.18 10.7419 2.48318 10.9601 2.52649 11.2553C2.5698 11.5633 2.32437 11.8328 1.99231 11.8713C1.77576 11.8969 1.57364 11.9996 1.4437 12.1536C1.31377 12.3076 1.24158 12.5001 1.27046 12.7055C1.34264 13.206 1.63138 13.6423 2.0645 13.9503C2.51205 14.2583 3.06066 14.3995 3.62371 14.3353C4.82199 14.207 5.89034 13.668 6.62663 12.821C7.36292 11.9739 7.69498 10.9216 7.53617 9.85639C7.49286 9.54838 7.73829 9.27887 8.07034 9.24037C8.09922 9.24037 8.12809 9.24037 8.14253 9.24037V9.22754Z" fill="#D9BF9F"/>
<path d="M113.317 0C116.349 0 119.337 0.73152 122.008 2.16889C123.567 3.00308 124.939 4.04261 126.094 5.23614C130.179 1.07803 136.517 -0.924025 142.783 0.449179C149.208 1.86088 153.135 7.64887 151.546 13.3599C150.998 15.3362 149.612 17.0046 147.648 18.057C145.685 19.1093 143.375 19.4174 141.152 18.9297C139.549 18.5832 138.192 17.6848 137.34 16.4271C136.489 15.1694 136.229 13.6935 136.633 12.269C137.225 10.1258 139.679 8.8039 142.105 9.34292C142.437 9.41992 142.639 9.71509 142.552 10.0103C142.465 10.3054 142.133 10.4851 141.801 10.4081C140.95 10.2156 140.069 10.3439 139.318 10.7418C138.567 11.1396 138.048 11.7813 137.831 12.5385C137.514 13.6807 137.716 14.8614 138.394 15.8624C139.073 16.8634 140.156 17.5821 141.44 17.8645C143.346 18.288 145.31 18.0185 146.999 17.1201C148.673 16.2218 149.857 14.7972 150.334 13.1032C151.763 7.98255 148.226 2.79774 142.48 1.52721C136.59 0.231006 130.656 2.15606 126.873 6.12166C128.173 7.68737 129.126 9.48409 129.66 11.422C129.732 11.6273 131.753 17.5051 126.83 24.3711L126.368 25.0128L125.819 24.4225C125.588 24.1658 120.146 18.211 122.326 11.4091C122.961 9.43275 123.972 7.64887 125.271 6.12166C124.174 4.9538 122.845 3.93994 121.33 3.13142C117.749 1.20637 113.548 0.641684 109.491 1.54004C103.731 2.81058 100.208 7.99538 101.637 13.116C102.114 14.8101 103.298 16.2346 104.972 17.133C106.647 18.0313 108.625 18.3008 110.531 17.8773C111.815 17.595 112.898 16.8891 113.577 15.8753C114.255 14.8742 114.457 13.6935 114.14 12.5513C113.707 10.9985 111.931 10.0359 110.17 10.4209C109.838 10.4979 109.506 10.3183 109.419 10.0231C109.332 9.72793 109.534 9.43275 109.866 9.35575C112.277 8.82957 114.732 10.1386 115.338 12.2818C115.742 13.7064 115.483 15.1822 114.631 16.4399C113.779 17.6976 112.422 18.5832 110.819 18.9425C108.596 19.4302 106.286 19.1222 104.323 18.0698C102.359 17.0175 100.973 15.3491 100.425 13.3727C98.8365 7.6617 102.763 1.87372 109.188 0.462012C110.545 0.166838 111.917 0.0128337 113.274 0.0128337L113.317 0ZM126.281 23.0621C130.281 16.9276 128.505 11.7556 128.49 11.7043C128.014 9.9846 127.191 8.40606 126.094 7.00719C124.982 8.38039 124.101 9.9461 123.553 11.6915C121.95 16.7094 125.011 21.3937 126.281 23.0621Z" fill="#D9BF9F"/>
<path d="M8.14252 9.22754H100.786C101.132 9.22754 101.406 9.47138 101.406 9.77939C101.406 10.0874 101.132 10.3312 100.786 10.3312H8.14252C7.79603 10.3312 7.52173 10.0874 7.52173 9.77939C7.52173 9.47138 7.79603 9.22754 8.14252 9.22754Z" fill="#D9BF9F"/>
<path d="M151.229 9.22754H244.435L244.348 9.84356C244.204 10.8959 244.55 11.9483 245.316 12.7953C246.095 13.6423 247.178 14.1813 248.391 14.3225C248.954 14.3867 249.502 14.2455 249.95 13.9375C250.397 13.6295 250.686 13.1803 250.744 12.6926C250.773 12.5001 250.715 12.2948 250.571 12.1408C250.441 11.9868 250.239 11.8841 250.022 11.8584C249.676 11.8199 249.445 11.5504 249.488 11.2424C249.531 10.9344 249.849 10.7291 250.181 10.7676C250.729 10.8317 251.22 11.0756 251.567 11.4606C251.913 11.8456 252.058 12.3333 251.986 12.821C251.87 13.6167 251.422 14.3097 250.715 14.8102C250.008 15.2979 249.127 15.516 248.246 15.4134C246.716 15.2465 245.344 14.5535 244.363 13.4883C243.525 12.5643 243.078 11.4606 243.078 10.3312H151.229C150.882 10.3312 150.608 10.0874 150.608 9.77939C150.608 9.47138 150.882 9.22754 151.229 9.22754Z" fill="#D9BF9F"/>
</g>
<defs>
<clipPath id="clip0_415_2054">
<rect width="252" height="25" fill="white"/>
</clipPath>
</defs>
</svg>
